<?xml version="1.0" encoding="utf-8"?>
<!-- Generator: Adobe Illustrator 25.0.1, SVG Export Plug-In . SVG Version: 6.00 Build 0)  -->
<svg version="1.1" id="레이어_1" xmlns="http://www.w3.org/2000/svg" xmlns:xlink="http://www.w3.org/1999/xlink" x="0px"
	 y="0px" viewBox="0 0 1008.2 2582" style="enable-background:new 0 0 1008.2 2582;" xml:space="preserve">
<style type="text/css">
	.st0{fill:#FFC7CC;}
	.st1{fill:#FFFFFF;}
	.st2{fill:#192A4C;}
	.st3{fill:#434357;}
	.st4{fill:#FFA4AF;}
	.st5{fill:#FC6363;}
	.st6{fill:#FF98A5;}
	.st7{fill:#512727;}
	.st8{fill:#0F2848;}
	.st9{fill:#A24B36;}
	.st10{fill:#AE614E;}
</style>
<g>
	<path class="st0" d="M762.2,1140c46.4-20.2,81.3-54,95-69.8c12.4-14.2-157.1-149.5-159.3-172.9c-2.2-25,100.3-147.8,163.5-88.8
		c73.3,68.4,141,235.1,146.3,272.3c4.9,34.5-32.5,67.6-62.3,90c-42.6,32-103.1,58.8-136.6,68.5c-62.6,18.1-79.7,19.7-79.7,19.7
		l-23.3-90.4C711.3,1166.2,696.9,1168.5,762.2,1140z"/>
	<path class="st0" d="M246,1140c-46.4-20.2-81.3-54-95-69.8c-12.3-14.2,157.2-149.5,159.3-172.9c2.2-25-100.3-147.8-163.4-88.8
		c-73.3,68.4-141,235.1-146.3,272.3c-4.9,34.5,32.5,67.6,62.3,90c42.6,32,103.1,58.8,136.6,68.5c62.6,18.1,79.7,19.7,79.7,19.7
		l23.3-90.4C296.9,1166.2,311.2,1168.5,246,1140z"/>
	<polygon class="st1" points="429.7,809 188.4,1044.9 15,882.9 230,667 255,645.9 	"/>
	
		<ellipse transform="matrix(0.7071 -0.7071 0.7071 0.7071 76.8879 385.8037)" class="st2" cx="504.2" cy="100.1" rx="100.1" ry="100.1"/>
	<polygon class="st0" points="303.4,1647.4 377.7,2473.3 469.3,2473.3 469.3,1647.4 	"/>
	<path class="st3" d="M377.8,2474.8c-102.8,0-106.8,107.2-106.8,107.2h198.2v-108.7h-91.5L377.8,2474.8z"/>
	<polygon class="st0" points="717.7,1647.4 551.9,1647.4 551.9,2473.3 643.4,2473.3 	"/>
	<path class="st3" d="M643.3,2474.8l0.1-1.5h-91.6V2582h198.2C750.1,2582,746.1,2474.8,643.3,2474.8z"/>
	<path class="st1" d="M338.9,1310.6h305.7c53.3,0,84.9-43.6,84.9-96.9l66.2-467.4c0-53.3-18.9-109-72.2-109H291.3
		c-53.3,0-63.5,38.4-63.5,91.7l38.8,484.7C266.5,1267,285.6,1310.6,338.9,1310.6z"/>
	<polygon class="st1" points="581.2,809 822.6,1044.9 995.9,882.9 780.9,660.9 754,645.9 	"/>
	<path class="st0" d="M478,434.8h51.7c37.8,0,68.5,30.7,68.5,68.5v150.4c0,37.8-30.7,68.5-68.5,68.5H478
		c-37.8,0-68.5-30.7-68.5-68.5V503.3C409.4,465.5,440.1,434.8,478,434.8z"/>
	<path class="st4" d="M504.2,491.1h-50.9c-24.1,0-43.8,26.4-43.8,58.6V602c18.7,3.2,33,10.5,54.8,10.5h30.3
		c22.3,0,35.6-8.5,53.4-23.2v-39.6C548,517.5,528.3,491.1,504.2,491.1z"/>
	<path class="st0" d="M526,591.6h-47.2c-99.5,0-180.8-81.4-180.8-180.8V293.4c0-86.9,71.1-145.8,158-145.8h92.9
		c86.9,0,158,59,158,145.8v117.4C706.8,510.2,625.4,591.6,526,591.6z"/>
	<ellipse class="st0" cx="289.5" cy="391.6" rx="49.9" ry="52.7"/>
	<ellipse class="st0" cx="717.1" cy="391.6" rx="49.9" ry="52.7"/>
	<path class="st5" d="M440.4,442.4l124,0.2c2.6,0-2.7,19.7-3.2,21.1c-2.9,7.8-7,17-11.7,22.7c-17.8,21.8-43.3,27.2-65.6,19.1
		c-18.6-6.8-43.4-27.3-43.5-59.5C440.4,444.8,440.4,443.6,440.4,442.4z"/>
	<path class="st2" d="M716,339.3v-79.1c0-94-62.5-155.5-146.7-155.5h-125c-94.4,0-151.9,72.6-151.9,146.3v88.6
		c260.3,0,293.6-121,293.6-121S571.1,339.3,716,339.3z"/>
	<ellipse class="st4" cx="373.2" cy="478.4" rx="33.5" ry="26.3"/>
	<ellipse class="st4" cx="621.9" cy="478.4" rx="33.5" ry="26.3"/>
	<path class="st6" d="M512.8,426.2l-1.5-0.4c-9.1-2.6-18.2-5.7-21.9-11.4c-2.2-3.4-2.9-7.6-1.8-11.5c2.3-8.6,12.1-15.5,16.9-18.3
		l9.3,5.5l-2.5,1.3c-4.9,2.6-13.3,8.6-14.7,13.9c-0.4,1.4-0.2,2.9,0.7,4.1c2.1,3.3,12.3,6.2,16.7,7.5l1.5,0.4L512.8,426.2z"/>
	<polygon class="st3" points="748.3,1863.2 255.8,1863.2 288.4,1047.8 725.3,1047.8 	"/>
	<polygon class="st7" points="761.8,985.3 715.6,961.7 699.6,780.5 699.6,635.8 639.3,635.8 639.3,777.1 370.8,777.1 370.8,635.8 
		308.1,635.8 308.1,777.1 290.7,964.7 248.6,985.3 226.8,1666.3 779.4,1666.3 	"/>
	<path class="st8" d="M460.4,398.6h-11.1c0.3-12.7-9.8-23.1-22.4-23.4c-12.7-0.3-23.1,9.8-23.4,22.4c0,0.3,0,0.6,0,1h-11.1
		c0-18.8,15.2-34,34-34C445.3,364.5,460.5,379.8,460.4,398.6L460.4,398.6L460.4,398.6z"/>
	<path class="st8" d="M613.1,398.3h-11.1c0-12.7-10.3-22.9-22.9-22.9c-12.7,0-22.9,10.3-22.9,22.9H545c0-18.8,15.2-34,34-34
		C597.8,364.3,613.1,379.5,613.1,398.3L613.1,398.3L613.1,398.3z"/>
	<rect x="362.3" y="898.1" class="st9" width="278.2" height="456"/>
	<rect x="383.6" y="926.8" class="st10" width="235.6" height="398.7"/>
	<path class="st7" d="M452.9,1049.2c-0.2,3.2,2.2,5.9,5.4,6.1c0.2,0,0.4,0,0.6,0c1.6,0.1,3.1-0.2,4.6-0.8c0.7-0.4,1.5-0.7,2.2-0.9
		c1.5-0.3,3,0.3,3.7,1.6c1,1.7,0.5,3.8-1.1,4.9c-2.4,1.9-6.1,2.8-9.4,2.8c-7.4,0-14.9-3.8-14.9-13.3v-9c0-9.5,7.4-13.3,14.9-13.3
		c3.8,0,6.8,0.9,8.5,2.1s2.6,3.3,1.6,5.1c-0.8,1.4-2.4,2.1-3.9,1.8c-0.8-0.2-1.6-0.5-2.4-0.9c-1.2-0.4-2.5-0.6-3.8-0.6
		c-3.2-0.2-5.8,2.3-6,5.4c0,0.2,0,0.4,0,0.6V1049.2z"/>
	<path class="st7" d="M482.2,1031c0.9-2.3,3.1-3.7,5.6-3.6c2.3,0,4.5,1.4,5.3,3.6l11.2,31.2h-9.5l-1.7-5.3h-11.1l-1.6,5.3h-9.3
		L482.2,1031z M484.3,1049.6h6.6l-3.3-10.7L484.3,1049.6z"/>
	<path class="st7" d="M506.6,1062.2v-27.8c0-4.9,1.6-6.8,6.7-6.8h14.3c2.5,0,3.5,2.1,3.5,3.8c0.2,1.9-1.2,3.5-3.1,3.7
		c-0.1,0-0.3,0-0.4,0h-10.9c-1,0-1.2,0.2-1.2,1.2v5.4h11.1c2.5,0,3.5,2.1,3.5,3.8s-1,3.7-3.5,3.7h-11.1v12.9L506.6,1062.2z"/>
	<path class="st7" d="M543.2,1040.9h11.8c1.9,0,3.5,1.6,3.5,3.5c0,0.1,0,0.2,0,0.3c0.2,1.9-1.2,3.5-3.1,3.6c-0.1,0-0.3,0-0.4,0
		h-11.8v5c0,1,0.2,1.2,1.2,1.2h11.3c2.5,0,3.5,1.9,3.5,3.7s-1,3.8-3.5,3.8H541c-5.2,0-6.7-1.8-6.7-6.8v-21.1c0-4.9,1.6-6.8,6.7-6.8
		h14.2c2.5,0,3.5,2.1,3.5,3.8s-0.9,3.7-3.5,3.7h-10.9c-1,0-1.2,0.2-1.2,1.2L543.2,1040.9z"/>
	<path class="st7" d="M450.1,1110.2l-4.4-15.7l-2,19.4h-8.1l3.6-30.4c0.3-2.3,2.2-4.1,4.5-4.3c2.1-0.2,5,0.7,5.7,3.5l5.2,19.7
		l5.2-19.7c0.8-2.8,3.7-3.7,5.7-3.5c2.3,0.2,4.2,2,4.5,4.3l3.6,30.4h-8.1l-1.9-19.5l-4.4,15.8c-0.4,1.5-3,2.1-4.6,2.1
		S450.5,1111.7,450.1,1110.2z"/>
	<path class="st7" d="M486.4,1092.6h11.8c1.9,0,3.5,1.6,3.5,3.5c0,0.1,0,0.2,0,0.3c0.2,1.9-1.2,3.5-3.1,3.6c-0.1,0-0.3,0-0.4,0
		h-11.8v5c0,1,0.3,1.2,1.2,1.2H499c1.9-0.1,3.4,1.4,3.5,3.3c0,0.1,0,0.3,0,0.4c0,1.8-1,3.8-3.5,3.8h-14.7c-5.2,0-6.7-1.8-6.7-6.8
		v-21c0-5,1.6-6.8,6.7-6.8h14.2c2.5,0,3.5,2.1,3.5,3.8c0.2,1.9-1.2,3.5-3.1,3.7c-0.1,0-0.3,0-0.4,0h-10.9c-1,0-1.2,0.2-1.2,1.2
		L486.4,1092.6z"/>
	<path class="st7" d="M526.4,1100.3v-17.2c-0.1-2.2,1.6-4,3.7-4.1c2.2-0.1,4,1.6,4.1,3.7c0,0.1,0,0.3,0,0.4v27.1
		c-0.1,2.3-1.9,4.1-4.2,4.1c-2.1,0.2-4.6-0.7-5.6-2.5l-10.5-18.6v20.6h-7.8v-30.4c0-2.7,2.3-4.1,4.3-4.3c2.2-0.3,4.3,0.7,5.6,2.5
		L526.4,1100.3z"/>
	<path class="st7" d="M557.6,1083.3c0-2.9,2.1-4.3,4.4-4.3s4.4,1.3,4.4,4.3v18.7c0,9.6-7.7,12.7-13.9,12.7s-13.9-3-13.9-12.7v-18.6
		c0-2.9,2.1-4.3,4.4-4.3s4.4,1.3,4.4,4.3v19c0,2.8,2.2,5,5,5s5-2.2,5-5L557.6,1083.3z"/>
	<path class="st0" d="M404.2,1242.7l3.4-56.1c0.4-7.8-5.5-14.5-13.3-15l-48.1-3l13.1-7.4c6.8-3.9,9.2-12.5,5.3-19.3l-6.2-11
		c-3.9-6.8-12.5-9.2-19.3-5.3l-53,27.4l-21.2-6.8c-28.4-10.1-42.6-18.5-72.3-38.1l-69.4,100.4c21.5,11.4,67.9,33.1,118.7,42.9
		l23.3,2.8c20,2.4,40.1,3.4,60.2,3l63.7-1.2C396.9,1256.5,403.7,1250.5,404.2,1242.7z"/>
	<path class="st0" d="M604,1242.7l-3.4-56.1c-0.5-7.8,5.5-14.5,13.3-15l48.1-3l-13.1-7.4c-6.8-3.9-9.2-12.5-5.3-19.3l6.2-11
		c3.9-6.8,12.5-9.2,19.3-5.3l53,27.4l21.2-6.8c28.4-10.1,42.6-18.5,72.3-38.1l69.5,100.4c-21.5,11.4-67.9,33.1-118.7,42.9l-23.3,2.8
		c-20,2.4-40.1,3.4-60.3,3L619,1256C611.2,1256.5,604.5,1250.5,604,1242.7z"/>
</g>
</svg>
